<svg xmlns="http://www.w3.org/2000/svg" viewBox="0 0 420 420" role="img" aria-labelledby="title desc">
  <title id="title">DuitNow QR placeholder</title>
  <desc id="desc">A non-payment placeholder QR image for AmanahHub UI testing.</desc>
  <rect width="420" height="420" rx="34" fill="#ffffff"/>
  <rect x="18" y="18" width="384" height="384" rx="28" fill="#ecfdf5" stroke="#a7f3d0" stroke-width="2"/>
  <rect x="48" y="48" width="324" height="324" rx="18" fill="#ffffff"/>

  <g fill="#064e3b">
    <rect x="72" y="72" width="76" height="76" rx="8"/>
    <rect x="272" y="72" width="76" height="76" rx="8"/>
    <rect x="72" y="272" width="76" height="76" rx="8"/>
  </g>
  <g fill="#ffffff">
    <rect x="88" y="88" width="44" height="44" rx="5"/>
    <rect x="288" y="88" width="44" height="44" rx="5"/>
    <rect x="88" y="288" width="44" height="44" rx="5"/>
  </g>
  <g fill="#064e3b">
    <rect x="101" y="101" width="18" height="18" rx="2"/>
    <rect x="301" y="101" width="18" height="18" rx="2"/>
    <rect x="101" y="301" width="18" height="18" rx="2"/>

    <rect x="172" y="72" width="22" height="22" rx="3"/>
    <rect x="212" y="72" width="18" height="18" rx="3"/>
    <rect x="238" y="98" width="18" height="18" rx="3"/>
    <rect x="174" y="122" width="46" height="18" rx="3"/>

    <rect x="172" y="174" width="20" height="20" rx="3"/>
    <rect x="202" y="172" width="48" height="20" rx="3"/>
    <rect x="264" y="172" width="20" height="20" rx="3"/>
    <rect x="306" y="172" width="42" height="20" rx="3"/>

    <rect x="172" y="206" width="20" height="52" rx="3"/>
    <rect x="204" y="214" width="20" height="20" rx="3"/>
    <rect x="238" y="206" width="50" height="20" rx="3"/>
    <rect x="306" y="206" width="20" height="52" rx="3"/>
    <rect x="338" y="238" width="20" height="20" rx="3"/>

    <rect x="172" y="276" width="52" height="20" rx="3"/>
    <rect x="244" y="274" width="20" height="20" rx="3"/>
    <rect x="278" y="274" width="70" height="20" rx="3"/>
    <rect x="172" y="310" width="20" height="38" rx="3"/>
    <rect x="212" y="328" width="52" height="20" rx="3"/>
    <rect x="284" y="310" width="20" height="38" rx="3"/>
    <rect x="322" y="328" width="26" height="20" rx="3"/>

    <rect x="72" y="172" width="20" height="54" rx="3"/>
    <rect x="104" y="172" width="44" height="20" rx="3"/>
    <rect x="104" y="212" width="20" height="46" rx="3"/>
    <rect x="132" y="238" width="20" height="20" rx="3"/>
  </g>

  <rect x="82" y="174" width="256" height="72" rx="18" fill="#ffffff" fill-opacity="0.92" stroke="#bbf7d0"/>
  <text x="210" y="203" text-anchor="middle" font-family="Arial, Helvetica, sans-serif" font-size="19" font-weight="800" fill="#065f46">DUITNOW QR</text>
  <text x="210" y="228" text-anchor="middle" font-family="Arial, Helvetica, sans-serif" font-size="12" font-weight="700" fill="#047857">PLACEHOLDER ONLY</text>

  <text x="210" y="391" text-anchor="middle" font-family="Arial, Helvetica, sans-serif" font-size="11" font-weight="700" fill="#047857">Replace with verified charity QR before production</text>
</svg>
